<svg width="58" height="63" viewBox="0 0 58 63" fill="none" xmlns="http://www.w3.org/2000/svg">
<g clip-path="url(#clip0_4614_2908)">
<path d="M57.6332 61.2667L42.3274 45.9609C39.2177 47.3061 35.788 48.0543 32.1839 48.0543C30.3124 48.0543 28.4882 47.8513 26.7314 47.4694L41.7348 62.4728C42.078 62.816 42.5448 63.0092 43.0304 63.0081H56.7736C56.8276 63.0081 56.9203 62.9463 57.0196 62.9054C57.4964 62.709 57.8252 62.2444 57.802 61.728C57.7932 61.5426 57.7413 61.3748 57.6343 61.2667H57.6332Z" fill="#0D0D0D"/>
<path d="M11.0317 16.4637L10.981 16.5531C10.9534 16.5973 8.09308 21.1537 7.92755 28.1908C7.87789 30.2753 8.07101 32.3676 8.49917 34.4566C10.0882 29.7203 13.2796 24.3053 19.5387 19.5878C19.9945 19.2446 20.6511 19.3527 20.9689 19.8394C21.2569 20.2797 21.1311 20.8745 20.7107 21.1923C13.3966 26.7132 10.5616 33.2261 9.53317 38.2449C11.5692 44.1995 15.5109 50.0636 21.2249 55.5712C21.62 55.9519 21.631 56.5809 21.2514 56.976C21.0561 57.1779 20.7967 57.2795 20.5363 57.2795C20.2759 57.2795 20.0397 57.1868 19.8477 57.0014C14.9845 52.3158 11.3484 47.3909 9.02113 42.3489C9.0112 42.5718 9.00348 42.7881 9.00017 42.9956C8.88209 49.0483 10.96 54.9808 14.222 58.0784C17.164 61.0414 19.4836 61.8745 22.8151 62.9515C23.6703 63.2285 24.5421 62.4483 24.5421 61.549V17.3223V4.74219C19.1194 6.69762 14.062 10.4672 11.0317 16.4637Z" fill="#0D0D0D"/>
<path d="M7.47578 11.5664C0.200304 21.1747 -3.43799 36.2995 8.30231 51.8547C7.41509 49.129 6.95272 46.0767 7.01341 42.9559C7.03769 41.6847 7.16018 40.1353 7.47799 38.405C6.36564 34.9632 5.8481 31.4838 5.9441 28.0254C6.14494 20.7753 8.93904 16.0743 9.28003 15.5258C11.8965 10.3724 16.1627 6.31258 21.6195 3.78332C22.5708 3.34302 23.5463 2.95458 24.5417 2.62132V1.21875C24.5417 1.21875 14.2127 2.66987 7.47578 11.5664Z" fill="#0D0D0D"/>
<path d="M21.6209 3.78415C26.1817 1.67092 31.3351 0.769346 36.2844 1.19751C34.4183 0.747275 32.4684 0.507812 30.4589 0.507812C17.102 0.507812 6.27539 11.064 6.27539 24.0855C6.27539 24.1771 6.2776 24.2676 6.2787 24.3592C7.07544 19.2157 9.00218 15.9758 9.28137 15.5278C11.8978 10.3743 16.164 6.31451 21.6209 3.78525V3.78415Z" fill="#0D0D0D"/>
<path d="M54.4165 20.8524C52.7867 23.0826 49.8314 26.7684 45.893 30.1838C42.3066 33.2946 38.6528 35.5204 35.0333 36.7993C32.589 37.6634 30.1613 38.0949 27.7666 38.0949C25.6644 38.0949 23.5887 37.7616 21.5527 37.0962C21.0319 36.9262 20.7472 36.3645 20.9171 35.8437C21.0882 35.3228 21.6488 35.0381 22.1696 35.2081C29.3369 37.5519 36.8695 35.367 44.5577 28.7128C49.4816 24.451 52.8981 19.6154 53.8747 18.1632C53.2579 15.8392 52.2857 13.6553 51.0199 11.6668C49.1164 14.2998 46.7074 16.3655 43.8239 17.8321C43.6793 17.9049 43.5259 17.9402 43.3748 17.9402C43.0128 17.9402 42.6641 17.7416 42.4886 17.3973C42.2404 16.9085 42.4346 16.3104 42.9234 16.0621C45.7429 14.6286 48.0415 12.5849 49.816 9.94969C49.3646 9.36372 48.8846 8.79983 48.3803 8.258C41.8994 9.64292 36.9479 12.0375 36.8916 12.064C36.3983 12.3046 35.8035 12.1004 35.563 11.6072C35.3224 11.1139 35.5266 10.5191 36.0198 10.2785C36.2372 10.1726 40.5387 8.09358 46.4701 6.6546C43.9607 4.96401 40.9194 3.81966 37.4677 3.33081C28.5667 2.0717 16.4986 5.64488 11.0307 16.4648L10.98 16.5542C10.9524 16.5984 8.09206 21.1548 7.92654 28.1919C7.8835 30.0028 8.02365 31.8192 8.34146 33.6333C8.42312 33.8143 8.50809 33.9931 8.59527 34.1708C10.2163 29.504 13.4033 24.2104 19.5377 19.5889C19.9758 19.259 20.5982 19.3461 20.9282 19.7842C21.2581 20.2223 21.1709 20.8447 20.7328 21.1747C14.1978 26.0985 11.2316 31.8159 9.93604 36.5577C12.9972 41.3337 17.7611 44.9654 23.4022 46.6405C22.5238 46.3238 21.6311 45.953 20.7273 45.5215C20.2109 45.2743 19.9847 44.6387 20.2219 44.1013C20.4592 43.5639 21.0705 43.3288 21.587 43.576C29.4804 47.3478 36.3928 46.1075 40.8025 44.4037C44.2267 43.0805 46.1269 42.0697 48.5238 39.7579C52.3298 35.5921 54.6439 30.1021 54.6439 24.0835C54.6439 22.9866 54.5655 21.9074 54.4165 20.8502V20.8524ZM24.5433 17.3256C26.1301 15.3933 28.5093 14.1651 31.1699 14.1651C35.9481 14.1651 39.8225 18.1256 39.8225 23.012C39.8225 27.8984 35.9492 31.8589 31.1699 31.8589C28.5093 31.8589 26.1301 30.6296 24.5433 28.6984V17.3256Z" fill="#0D0D0D"/>
</g>
<defs>
<clipPath id="clip0_4614_2908">
<rect width="58" height="63" fill="white"/>
</clipPath>
</defs>
</svg>
