<svg width="149" height="64" viewBox="0 0 149 64" fill="none" xmlns="http://www.w3.org/2000/svg">
<g clip-path="url(#clip0_4631_2935)">
<path d="M56.6332 61.2667L41.3274 45.9609C38.2177 47.3061 34.788 48.0543 31.1839 48.0543C29.3124 48.0543 27.4882 47.8513 25.7314 47.4694L40.7348 62.4728C41.078 62.816 41.5448 63.0092 42.0304 63.0081H55.7736C55.8276 63.0081 55.9203 62.9463 56.0196 62.9054C56.4964 62.709 56.8252 62.2444 56.802 61.728C56.7932 61.5426 56.7413 61.3748 56.6343 61.2667H56.6332Z" fill="#0D0D0D"/>
<path d="M10.0317 16.4637L9.98098 16.5531C9.95339 16.5973 7.09308 21.1537 6.92755 28.1908C6.87789 30.2753 7.07101 32.3676 7.49917 34.4566C9.08823 29.7203 12.2796 24.3053 18.5387 19.5878C18.9945 19.2446 19.6511 19.3527 19.9689 19.8394C20.2569 20.2797 20.1311 20.8745 19.7107 21.1923C12.3966 26.7132 9.56164 33.2261 8.53317 38.2449C10.5692 44.1995 14.5109 50.0636 20.2249 55.5712C20.62 55.9519 20.631 56.5809 20.2514 56.976C20.0561 57.1779 19.7967 57.2795 19.5363 57.2795C19.2759 57.2795 19.0397 57.1868 18.8477 57.0014C13.9845 52.3158 10.3484 47.3909 8.02113 42.3489C8.0112 42.5718 8.00348 42.7881 8.00017 42.9956C7.88209 49.0483 9.96001 54.9808 13.222 58.0784C16.164 61.0414 18.4836 61.8745 21.8151 62.9515C22.6703 63.2285 23.5421 62.4483 23.5421 61.549V17.3223V4.74219C18.1194 6.69762 13.062 10.4672 10.0317 16.4637Z" fill="#0D0D0D"/>
<path d="M6.47578 11.5664C-0.799696 21.1747 -4.43799 36.2995 7.30231 51.8547C6.41509 49.129 5.95272 46.0767 6.01341 42.9559C6.03769 41.6847 6.16018 40.1353 6.47799 38.405C5.36564 34.9632 4.8481 31.4838 4.9441 28.0254C5.14494 20.7753 7.93904 16.0743 8.28003 15.5258C10.8965 10.3724 15.1627 6.31258 20.6195 3.78332C21.5708 3.34302 22.5463 2.95458 23.5417 2.62132V1.21875C23.5417 1.21875 13.2127 2.66987 6.47578 11.5664Z" fill="#0D0D0D"/>
<path d="M20.6209 3.78415C25.1817 1.67092 30.3351 0.769346 35.2844 1.19751C33.4183 0.747275 31.4684 0.507812 29.4589 0.507812C16.102 0.507812 5.27539 11.064 5.27539 24.0855C5.27539 24.1771 5.2776 24.2676 5.2787 24.3592C6.07544 19.2157 8.00218 15.9758 8.28137 15.5278C10.8978 10.3743 15.164 6.31451 20.6209 3.78525V3.78415Z" fill="#0D0D0D"/>
<path d="M53.4165 20.8524C51.7867 23.0826 48.8314 26.7684 44.893 30.1838C41.3066 33.2946 37.6528 35.5204 34.0333 36.7993C31.589 37.6634 29.1613 38.0949 26.7666 38.0949C24.6644 38.0949 22.5887 37.7616 20.5527 37.0962C20.0319 36.9262 19.7472 36.3645 19.9171 35.8437C20.0882 35.3228 20.6488 35.0381 21.1696 35.2081C28.3369 37.5519 35.8695 35.367 43.5577 28.7128C48.4816 24.451 51.8981 19.6154 52.8747 18.1632C52.2579 15.8392 51.2857 13.6553 50.0199 11.6668C48.1164 14.2998 45.7074 16.3655 42.8239 17.8321C42.6793 17.9049 42.5259 17.9402 42.3748 17.9402C42.0128 17.9402 41.6641 17.7416 41.4886 17.3973C41.2404 16.9085 41.4346 16.3104 41.9234 16.0621C44.7429 14.6286 47.0415 12.5849 48.816 9.94969C48.3646 9.36372 47.8846 8.79983 47.3803 8.258C40.8994 9.64292 35.9479 12.0375 35.8916 12.064C35.3983 12.3046 34.8035 12.1004 34.563 11.6072C34.3224 11.1139 34.5266 10.5191 35.0198 10.2785C35.2372 10.1726 39.5387 8.09358 45.4701 6.6546C42.9607 4.96401 39.9194 3.81966 36.4677 3.33081C27.5667 2.0717 15.4986 5.64488 10.0307 16.4648L9.97997 16.5542C9.95238 16.5984 7.09206 21.1548 6.92654 28.1919C6.8835 30.0028 7.02365 31.8192 7.34146 33.6333C7.42312 33.8143 7.50809 33.9931 7.59527 34.1708C9.21633 29.504 12.4033 24.2104 18.5377 19.5889C18.9758 19.259 19.5982 19.3461 19.9282 19.7842C20.2581 20.2223 20.1709 20.8447 19.7328 21.1747C13.1978 26.0985 10.2316 31.8159 8.93604 36.5577C11.9972 41.3337 16.7611 44.9654 22.4022 46.6405C21.5238 46.3238 20.6311 45.953 19.7273 45.5215C19.2109 45.2743 18.9847 44.6387 19.2219 44.1013C19.4592 43.5639 20.0705 43.3288 20.587 43.576C28.4804 47.3478 35.3928 46.1075 39.8025 44.4037C43.2267 43.0805 45.1269 42.0697 47.5238 39.7579C51.3298 35.5921 53.6439 30.1021 53.6439 24.0835C53.6439 22.9866 53.5655 21.9074 53.4165 20.8502V20.8524ZM23.5433 17.3256C25.1301 15.3933 27.5093 14.1651 30.1699 14.1651C34.9481 14.1651 38.8225 18.1256 38.8225 23.012C38.8225 27.8984 34.9492 31.8589 30.1699 31.8589C27.5093 31.8589 25.1301 30.6296 23.5433 28.6984V17.3256Z" fill="#0D0D0D"/>
</g>
<path d="M73.098 23.698H70.082V31.238H72.812C73.696 31.238 74.5107 31.1253 75.256 30.9C76.0013 30.6747 76.608 30.2847 77.076 29.73C77.544 29.158 77.778 28.3867 77.778 27.416C77.778 26.4107 77.57 25.6393 77.154 25.102C76.7553 24.5647 76.2007 24.2007 75.49 24.01C74.7967 23.802 73.9993 23.698 73.098 23.698ZM68.47 22.32H73.046C74.2767 22.32 75.3687 22.4847 76.322 22.814C77.2753 23.126 78.0293 23.6547 78.584 24.4C79.1387 25.128 79.416 26.116 79.416 27.364C79.3987 28.5947 79.0953 29.5827 78.506 30.328C77.9167 31.0733 77.1627 31.628 76.244 31.992L80.82 40H79L74.814 32.434C74.4847 32.4687 74.1467 32.5033 73.8 32.538C73.4533 32.5553 73.1067 32.564 72.76 32.564H70.082V40H68.47V22.32ZM89.293 40.322C87.913 40.322 86.6787 39.977 85.59 39.287C84.5167 38.597 83.6657 37.6463 83.037 36.435C82.4237 35.2083 82.117 33.813 82.117 32.249C82.117 30.685 82.4314 29.2897 83.06 28.063C83.6887 26.821 84.555 25.8397 85.659 25.119C86.763 24.3983 88.0204 24.0227 89.431 23.992C90.8264 23.992 92.0607 24.337 93.134 25.027C94.2227 25.717 95.0737 26.6753 95.687 27.902C96.3157 29.1133 96.63 30.501 96.63 32.065C96.63 33.629 96.3157 35.032 95.687 36.274C95.0584 37.516 94.192 38.4973 93.088 39.218C91.984 39.9233 90.719 40.2913 89.293 40.322ZM89.247 39.057C90.3817 39.057 91.386 38.758 92.26 38.16C93.134 37.562 93.8164 36.7417 94.307 35.699C94.813 34.641 95.066 33.4373 95.066 32.088C95.066 30.7693 94.8207 29.5963 94.33 28.569C93.8547 27.5417 93.1954 26.7367 92.352 26.154C91.5087 25.5713 90.5427 25.28 89.454 25.28C88.3347 25.28 87.3304 25.579 86.441 26.177C85.567 26.775 84.877 27.5953 84.371 28.638C83.8804 29.6807 83.635 30.8767 83.635 32.226C83.635 33.5447 83.8727 34.7177 84.348 35.745C84.8387 36.7723 85.5057 37.585 86.349 38.183C87.1924 38.7657 88.1584 39.057 89.247 39.057ZM104.236 40H99.8432V24.36H103.615C104.719 24.36 105.693 24.4827 106.536 24.728C107.38 24.9733 108.039 25.395 108.514 25.993C109.005 26.5757 109.25 27.3883 109.25 28.431C109.25 29.213 109.02 29.8723 108.56 30.409C108.1 30.9457 107.556 31.3673 106.927 31.674C107.878 31.9653 108.645 32.433 109.227 33.077C109.825 33.721 110.124 34.5873 110.124 35.676C110.124 36.504 109.971 37.194 109.664 37.746C109.358 38.298 108.928 38.7427 108.376 39.08C107.84 39.402 107.219 39.6397 106.513 39.793C105.808 39.931 105.049 40 104.236 40ZM103.661 25.579H101.269V31.306H103.362C104.16 31.2907 104.896 31.2063 105.57 31.053C106.245 30.8843 106.789 30.593 107.203 30.179C107.617 29.765 107.824 29.19 107.824 28.454C107.824 27.6567 107.648 27.051 107.295 26.637C106.958 26.223 106.475 25.947 105.846 25.809C105.233 25.6557 104.505 25.579 103.661 25.579ZM104.535 32.479H101.269V38.804H104.282C105.11 38.804 105.854 38.7197 106.513 38.551C107.188 38.367 107.717 38.0527 108.1 37.608C108.499 37.148 108.698 36.5193 108.698 35.722C108.698 34.5567 108.315 33.7287 107.548 33.238C106.797 32.732 105.793 32.479 104.535 32.479ZM122.042 40H113.118V24.36H121.398L121.513 25.395H114.544V31.467H120.064L120.179 32.502H114.544V38.85H121.904L122.042 40ZM128.779 25.579H126.111V32.249H128.526C129.308 32.249 130.029 32.1493 130.688 31.95C131.347 31.7507 131.884 31.4057 132.298 30.915C132.712 30.409 132.919 29.7267 132.919 28.868C132.919 27.9787 132.735 27.2963 132.367 26.821C132.014 26.3457 131.524 26.0237 130.895 25.855C130.282 25.671 129.576 25.579 128.779 25.579ZM124.685 24.36H128.733C129.822 24.36 130.788 24.5057 131.631 24.797C132.474 25.073 133.141 25.5407 133.632 26.2C134.123 26.844 134.368 27.718 134.368 28.822C134.353 29.9107 134.084 30.7847 133.563 31.444C133.042 32.1033 132.375 32.594 131.562 32.916L135.61 40H134L130.297 33.307C130.006 33.3377 129.707 33.3683 129.4 33.399C129.093 33.4143 128.787 33.422 128.48 33.422H126.111V40H124.685V24.36ZM148.216 24.36L148.331 25.487H142.926V40H141.477V25.487H136.072V24.36H148.216ZM76.998 56.396L73.54 47.4L70.186 56.396H76.998ZM72.682 45.32H74.372L81.132 62.87L79.546 63.13L77.466 57.696H69.744L67.794 63H66.26L72.682 45.32ZM87.6657 48.579H84.9977V55.249H87.4127C88.1947 55.249 88.9154 55.1493 89.5747 54.95C90.2341 54.7507 90.7707 54.4057 91.1847 53.915C91.5987 53.409 91.8057 52.7267 91.8057 51.868C91.8057 50.9787 91.6217 50.2963 91.2537 49.821C90.9011 49.3457 90.4104 49.0237 89.7817 48.855C89.1684 48.671 88.4631 48.579 87.6657 48.579ZM83.5717 47.36H87.6197C88.7084 47.36 89.6744 47.5057 90.5177 47.797C91.3611 48.073 92.0281 48.5407 92.5187 49.2C93.0094 49.844 93.2547 50.718 93.2547 51.822C93.2394 52.9107 92.9711 53.7847 92.4497 54.444C91.9284 55.1033 91.2614 55.594 90.4487 55.916L94.4967 63H92.8867L89.1837 56.307C88.8924 56.3377 88.5934 56.3683 88.2867 56.399C87.9801 56.4143 87.6734 56.422 87.3667 56.422H84.9977V63H83.5717V47.36ZM98.3395 63H96.9135V47.36H97.8565L106.068 58.676L106.85 60.033V47.36H108.299V63H107.356L98.6615 50.787L98.3395 50.12V63ZM114.085 63H112.659V47.36H114.085V63ZM119.88 63H118.454V47.36H119.397L127.608 58.676L128.39 60.033V47.36H129.839V63H128.896L120.202 50.787L119.88 50.12V63ZM140.202 56.169L140.34 55.134H145.147V62.264C144.84 62.4787 144.441 62.6703 143.951 62.839C143.475 62.9923 142.969 63.1073 142.433 63.184C141.911 63.276 141.413 63.322 140.938 63.322C139.358 63.322 137.971 62.9693 136.775 62.264C135.594 61.5587 134.674 60.6003 134.015 59.389C133.371 58.1623 133.049 56.79 133.049 55.272C133.049 54.03 133.256 52.9107 133.67 51.914C134.084 50.902 134.651 50.0357 135.372 49.315C136.108 48.579 136.959 48.0193 137.925 47.636C138.906 47.2373 139.956 47.038 141.076 47.038C141.398 47.038 141.804 47.0687 142.295 47.13C142.785 47.1913 143.268 47.2833 143.744 47.406C144.234 47.5287 144.618 47.6897 144.894 47.889L144.457 48.947C144.15 48.809 143.843 48.694 143.537 48.602C143.23 48.4947 142.885 48.418 142.502 48.372C142.134 48.3107 141.674 48.28 141.122 48.28C140.294 48.28 139.489 48.441 138.707 48.763C137.94 49.0697 137.242 49.522 136.614 50.12C135.985 50.7027 135.487 51.431 135.119 52.305C134.751 53.1637 134.567 54.145 134.567 55.249C134.567 56.6443 134.843 57.8557 135.395 58.883C135.962 59.895 136.729 60.677 137.695 61.229C138.661 61.781 139.734 62.057 140.915 62.057C141.467 62.057 141.973 62.0033 142.433 61.896C142.908 61.7887 143.337 61.666 143.721 61.528V56.169H140.202Z" fill="#0D0D0D"/>
<defs>
<clipPath id="clip0_4631_2935">
<rect width="85" height="63" fill="white"/>
</clipPath>
</defs>
</svg>
